<svg width="29" height="53" viewBox="0 0 29 53" fill="none" xmlns="http://www.w3.org/2000/svg">
<g clip-path="url(#clip0_122_1947)">
<path d="M25.8651 0.569885H3.13465C1.93868 0.569885 0.964892 1.56497 0.964892 2.78711V48.2315C0.956178 49.5783 2.13476 50.5778 3.42443 50.4487V52.4322C3.42443 52.7461 3.67495 53.0021 3.98212 53.0021H7.22588C7.53305 53.0021 7.78357 52.7461 7.78357 52.4322V50.4487H21.2117V52.4322C21.2117 52.7461 21.4622 53.0021 21.7694 53.0021H25.0131C25.3203 53.0021 25.5708 52.7461 25.5708 52.4322V50.4487C26.8605 50.5756 28.0391 49.5827 28.0304 48.2315V15.812L28.0347 2.78711C28.0347 1.56497 27.061 0.569885 25.8651 0.569885ZM3.13465 1.70967H25.8651C26.4467 1.70967 26.9194 2.19275 26.9194 2.78711V15.5744L22.166 20.3673C22.0593 20.4741 22.0004 20.621 22.0004 20.7724V49.3047H7.00354V20.7724C7.00354 20.6188 6.94472 20.4741 6.83797 20.3673L2.08454 15.5744L2.08236 2.78711C2.08236 2.19271 2.55509 1.70967 3.13673 1.70967H3.13465ZM2.08028 48.2317V17.1771L5.88608 21.0128V49.3068H3.13465C2.55298 49.3068 2.08028 48.8237 2.08028 48.2294V48.2317ZM6.67036 51.8603H4.54199V50.4467H6.67036V51.8603ZM24.458 51.8603H22.3296V50.4467H24.458V51.8603ZM26.9197 48.2317C26.9197 48.8261 26.4469 49.3091 25.8653 49.3091H23.1139V21.0151L26.9197 17.1795V48.234V48.2317Z" fill="#494949"/>
<path d="M21.4802 6.4848H19.8638C19.1318 6.49816 19.1296 7.61125 19.8638 7.62459H21.4802C22.2121 7.61123 22.2143 6.49814 21.4802 6.4848Z" fill="#494949"/>
<path d="M5.07161 13.2568H23.9283C24.2355 13.2568 24.486 13.0008 24.486 12.6869V5.17805C24.486 4.86416 24.2355 4.60815 23.9283 4.60815H5.07161C4.76444 4.60815 4.51392 4.86416 4.51392 5.17805V12.6869C4.51392 13.0008 4.76444 13.2568 5.07161 13.2568ZM23.3706 12.1171H5.6293V9.50136H23.3706V12.1171ZM5.6293 5.74566H23.3706V8.36135H5.6293V5.74566Z" fill="#494949"/>
<path d="M19.8633 11.3779H21.4797C22.2117 11.3645 22.2138 10.2514 21.4797 10.2381H19.8633C19.1313 10.2515 19.1291 11.3646 19.8633 11.3779Z" fill="#494949"/>
<path d="M19.8634 41.7133H9.13679C8.82963 41.7133 8.5791 41.9693 8.5791 42.2832C8.5791 42.5971 8.82963 42.8531 9.13679 42.8531H19.8634C20.5932 42.8419 20.5998 41.7266 19.8634 41.7133Z" fill="#494949"/>
<path d="M19.8634 44.5787H9.13679C8.82963 44.5787 8.5791 44.8347 8.5791 45.1486C8.5791 45.4625 8.82963 45.7185 9.13679 45.7185H19.8634C20.5932 45.7074 20.5998 44.592 19.8634 44.5787Z" fill="#494949"/>
<path d="M14.5 36.0389C12.8618 36.0389 11.5286 34.6765 11.5286 33.0024C11.5286 32.2411 11.8074 31.5131 12.3128 30.9521C12.5219 30.7206 12.8727 30.705 13.1014 30.9187C13.328 31.1324 13.3432 31.4931 13.1341 31.7246C12.8248 32.0697 12.6461 32.5349 12.6461 33.0024C12.6461 34.0487 13.4783 34.8991 14.5022 34.8991C15.526 34.8991 16.3582 34.0487 16.3582 33.0024C16.3582 32.5349 16.1796 32.0674 15.8702 31.7246C15.6611 31.4931 15.6764 31.1324 15.9029 30.9187C16.1295 30.705 16.4824 30.7206 16.6916 30.9521C17.197 31.5131 17.4758 32.241 17.4758 33.0024C17.4758 34.6765 16.1426 36.0389 14.5043 36.0389H14.5Z" fill="#494949"/>
<path d="M14.4979 32.9825C14.1907 32.9825 13.9402 32.7265 13.9402 32.4126V29.9661C13.9402 29.6522 14.1907 29.3962 14.4979 29.3962C14.805 29.3962 15.0556 29.6522 15.0556 29.9661V32.4126C15.0556 32.7265 14.805 32.9825 14.4979 32.9825Z" fill="#494949"/>
</g>
<defs>
<clipPath id="clip0_122_1947">
<rect width="29" height="53" fill="white"/>
</clipPath>
</defs>
</svg>
