<svg width="54" height="53" viewBox="0 0 54 53" fill="none" xmlns="http://www.w3.org/2000/svg">
<g clip-path="url(#clip0_122_1975)">
<path d="M50.4715 0.278946H3.52853C2.04813 0.278946 0.84375 1.47319 0.84375 2.94148V49.5006C0.84375 50.9689 2.04813 52.1632 3.52853 52.1632H50.4715C51.9519 52.1632 53.1562 50.9689 53.1562 49.5006V2.94148C53.1562 1.47319 51.9519 0.278946 50.4715 0.278946ZM51.4688 49.5006C51.4688 50.046 51.0213 50.4895 50.4715 50.4895H3.52853C2.97867 50.4895 2.53125 50.046 2.53125 49.5006V2.94148C2.53125 2.39611 2.97867 1.95263 3.52853 1.95263H50.4715C51.0213 1.95263 51.4688 2.39611 51.4688 2.94148V49.5006Z" fill="#494949"/>
<path d="M35.6546 12.837H35.6035C35.4043 12.8392 35.2124 12.9106 35.0616 13.0397L31.8994 15.7356V10.9906C31.8994 10.8267 31.8508 10.6659 31.7594 10.5292C30.7972 9.08541 28.9686 8.30087 26.735 8.38314C23.738 8.48992 20.8104 10.0361 19.6159 12.1424C19.5187 12.314 19.4854 12.514 19.5222 12.7079L20.2951 16.7742L16.1494 14.4001C16.0058 14.3179 15.8413 14.2808 15.6756 14.2895C13.9398 14.3958 12.3446 15.5742 11.2995 17.523C9.89107 20.149 9.7705 23.4392 11.0065 25.5242C11.1078 25.6948 11.2668 25.8244 11.4555 25.8898L15.3955 27.2593L11.2556 29.6305C11.1122 29.7128 10.9963 29.8343 10.9224 29.9814C10.144 31.5281 10.3758 33.4906 11.5582 35.3653C13.1373 37.8687 15.9212 39.6056 18.3456 39.6051H18.3967C18.5958 39.6029 18.7878 39.5315 18.9386 39.4024L22.1007 36.7065V41.4515C22.1007 41.616 22.1496 41.7767 22.2411 41.9135C23.1595 43.2886 24.8676 44.0628 26.9592 44.0628C27.0613 44.0628 27.1646 44.0606 27.2684 44.0568C30.2641 43.95 33.1901 42.4071 34.3837 40.3057C34.4815 40.1341 34.5147 39.9336 34.4779 39.7402L33.7042 35.6674L37.8507 38.042C37.9793 38.1155 38.1248 38.1542 38.2726 38.1542C38.2894 38.1542 38.3064 38.1537 38.3231 38.1526C40.0573 38.0496 41.6514 36.8739 42.6971 34.9284C44.1094 32.2996 44.2313 29.0056 42.9937 26.9179C42.8924 26.7474 42.7333 26.6177 42.5446 26.5523L38.6047 25.1828L42.7446 22.8116C42.8877 22.7299 43.0036 22.6078 43.0775 22.4613C43.8559 20.9167 43.6246 18.9559 42.443 17.0806C40.8637 14.575 38.0792 12.837 35.6546 12.837ZM26.796 10.0557C27.6996 10.0241 29.3116 10.144 30.2119 11.2614V17.1743L26.677 20.1881C25.2505 20.2623 23.9527 20.8257 22.9507 21.7117L21.241 12.7161C22.2381 11.2609 24.5581 10.1358 26.796 10.0557ZM27.0001 21.8532C29.4289 21.8532 31.4048 23.813 31.4048 26.2221C31.4048 28.6308 29.4289 30.5905 27.0001 30.5905C24.5713 30.5905 22.5954 28.6308 22.5954 26.2221C22.5954 23.813 24.5713 21.8532 27.0001 21.8532ZM12.3229 24.4177C11.5552 22.8285 11.7376 20.2705 12.7893 18.3092C13.2147 17.5159 14.1225 16.2002 15.5424 15.985L20.7072 18.9427L21.5703 23.4836C21.1469 24.3061 20.9079 25.2369 20.9079 26.2221C20.9079 26.6411 20.9512 27.0503 21.0334 27.4455L12.3229 24.4177ZM18.0863 37.9216C16.3172 37.7908 14.176 36.3596 12.9889 34.4778C12.5075 33.7145 11.8107 32.2745 12.3358 30.9446L17.4952 27.9891L21.8975 29.5193C22.6444 30.6524 23.7642 31.5227 25.0829 31.9574L18.0863 37.9216ZM27.2077 42.3842C26.2967 42.4153 24.6888 42.2965 23.7882 41.1802V35.2678L27.3211 32.2558C28.7485 32.182 30.0471 31.6184 31.0496 30.732L32.7591 39.7315C31.7563 41.2036 29.4822 42.303 27.2077 42.3842ZM41.6773 28.0244C42.4466 29.6164 42.2628 32.1776 41.2079 34.1411C40.7827 34.9327 39.8755 36.2446 38.4583 36.4571L33.2924 33.4991L32.4301 28.9599C32.8534 28.1376 33.0923 27.207 33.0923 26.2221C33.0923 25.8023 33.0488 25.3924 32.9662 24.9964L41.6773 28.0244ZM41.6646 21.4975L36.5049 24.453L32.1011 22.9223C31.3539 21.7898 30.2342 20.9202 28.9159 20.4859L35.9138 14.5205C37.6829 14.6513 39.8247 16.0842 41.012 17.9681C41.493 18.7309 42.1895 20.1703 41.6646 21.4975Z" fill="#494949"/>
<path d="M26.9999 3.67699C14.4665 3.67699 4.26978 13.7905 4.26978 26.2211C4.26978 38.6516 14.4665 48.7651 26.9999 48.7651C39.5334 48.7651 49.7301 38.6516 49.7301 26.2211C49.7301 13.7905 39.5334 3.67699 26.9999 3.67699ZM26.9999 47.0914C15.397 47.0914 5.95728 37.7293 5.95728 26.2211C5.95728 14.7128 15.397 5.35067 26.9999 5.35067C38.6029 5.35067 48.0426 14.7128 48.0426 26.2211C48.0426 37.7293 38.6029 47.0914 26.9999 47.0914Z" fill="#494949"/>
<path d="M47.4056 8.22514C48.6462 8.22514 49.6556 7.2243 49.6556 5.99356C49.6556 4.76281 48.6462 3.76198 47.3998 3.76198C46.1608 3.76198 45.1528 4.76281 45.1528 5.99356C45.1528 7.2243 46.1633 8.22514 47.4056 8.22514ZM47.4056 5.43566C47.7157 5.43566 47.9681 5.68573 47.9681 5.99356C47.9681 6.30138 47.7157 6.55145 47.4056 6.55145C47.0938 6.55145 46.8403 6.30138 46.8403 5.99356C46.8403 5.68573 47.0914 5.43566 47.4056 5.43566Z" fill="#494949"/>
<path d="M47.4079 44.2235C46.1689 44.2235 45.1609 45.2243 45.1609 46.4551C45.1609 47.6858 46.1714 48.6867 47.4136 48.6867C48.6543 48.6867 49.6636 47.6858 49.6636 46.4551C49.6636 45.2243 48.6543 44.2235 47.4079 44.2235ZM47.4136 47.013C47.1019 47.013 46.8484 46.7629 46.8484 46.4551C46.8484 46.1473 47.0994 45.8972 47.4136 45.8972C47.7237 45.8972 47.9761 46.1473 47.9761 46.4551C47.9761 46.7629 47.7237 47.013 47.4136 47.013Z" fill="#494949"/>
<path d="M6.617 8.22567C7.85764 8.22567 8.867 7.22484 8.867 5.99409C8.867 4.76334 7.85764 3.76251 6.61124 3.76251C5.37225 3.76251 4.36426 4.76334 4.36426 5.99409C4.36426 7.22484 5.37473 8.22567 6.617 8.22567ZM6.617 5.4362C6.92709 5.4362 7.1795 5.68627 7.1795 5.99409C7.1795 6.30191 6.92709 6.55199 6.617 6.55199C6.30527 6.55199 6.05176 6.30191 6.05176 5.99409C6.05176 5.68627 6.3028 5.4362 6.617 5.4362Z" fill="#494949"/>
<path d="M6.60367 44.2241C5.36469 44.2241 4.35669 45.2249 4.35669 46.4556C4.35669 47.6864 5.36716 48.6872 6.60944 48.6872C7.85007 48.6872 8.85944 47.6864 8.85944 46.4556C8.85944 45.2249 7.85007 44.2241 6.60367 44.2241ZM6.60944 47.0135C6.2977 47.0135 6.04419 46.7635 6.04419 46.4556C6.04419 46.1478 6.29523 45.8977 6.60944 45.8977C6.91953 45.8977 7.17194 46.1478 7.17194 46.4556C7.17194 46.7635 6.91953 47.0135 6.60944 47.0135Z" fill="#494949"/>
</g>
<defs>
<clipPath id="clip0_122_1975">
<rect width="54" height="53" fill="white"/>
</clipPath>
</defs>
</svg>
