<svg width="53" height="53" viewBox="0 0 53 53" fill="none" xmlns="http://www.w3.org/2000/svg">
<g clip-path="url(#clip0_117_11)">
<path d="M51.8843 35.568C52.3463 35.568 52.7211 35.9429 52.7211 36.4049C52.7211 36.8669 52.3463 37.2417 51.8843 37.2417H46.8741V40.3058H51.8843C52.3463 40.3058 52.7211 40.6806 52.7211 41.1426C52.7211 41.6046 52.3463 41.9795 51.8843 41.9795H46.8741V42.1102C46.8741 43.4178 46.338 44.6099 45.475 45.4728C44.6077 46.338 43.4178 46.8741 42.1103 46.8741H41.8291V51.8843C41.8291 52.3463 41.4543 52.7211 40.9923 52.7211C40.5303 52.7211 40.1554 52.3463 40.1554 51.8843V46.8741H37.0914V51.8843C37.0914 52.3463 36.7165 52.7211 36.2545 52.7211C35.7925 52.7211 35.4177 52.3463 35.4177 51.8843V46.8741H32.3536V51.8843C32.3536 52.3463 31.9788 52.7211 31.5168 52.7211C31.0548 52.7211 30.6799 52.3463 30.6799 51.8843V46.8741H27.6159V51.8843C27.6159 52.3463 27.241 52.7211 26.779 52.7211C26.317 52.7211 25.9422 52.3463 25.9422 51.8843V46.8741H22.8781V51.8843C22.8781 52.3463 22.5033 52.7211 22.0413 52.7211C21.5793 52.7211 21.2044 52.3463 21.2044 51.8843V46.8741H18.1404V51.8843C18.1404 52.3463 17.7655 52.7211 17.3035 52.7211C16.8415 52.7211 16.4667 52.3463 16.4667 51.8843V46.8741H13.4026V51.8843C13.4026 52.3463 13.0278 52.7211 12.5658 52.7211C12.1038 52.7211 11.7289 52.3463 11.7289 51.8843V46.8741H11.4478C10.1402 46.8741 8.94815 46.338 8.08519 45.475C7.22001 44.6076 6.68393 43.4178 6.68393 42.1102V41.9838H1.67376C1.21175 41.9838 0.836914 41.609 0.836914 41.147C0.836914 40.685 1.21175 40.3101 1.67376 40.3101H6.68393V37.2461H1.67376C1.21175 37.2461 0.836914 36.8712 0.836914 36.4092C0.836914 35.9472 1.21175 35.5724 1.67376 35.5724H6.68393V32.5083H1.67376C1.21175 32.5083 0.836914 32.1335 0.836914 31.6715C0.836914 31.2095 1.21175 30.8346 1.67376 30.8346H6.68393V27.7706H1.67376C1.21175 27.7706 0.836914 27.3957 0.836914 26.9337C0.836914 26.4717 1.21175 26.0969 1.67376 26.0969H6.68393V23.0328H1.67376C1.21175 23.0328 0.836914 22.658 0.836914 22.196C0.836914 21.734 1.21175 21.3591 1.67376 21.3591H6.68393V18.2951H1.67376C1.21175 18.2951 0.836914 17.9202 0.836914 17.4582C0.836914 16.9962 1.21175 16.6214 1.67376 16.6214H6.68393V13.5573H1.67376C1.21175 13.5573 0.836914 13.1825 0.836914 12.7205C0.836914 12.2585 1.21175 11.8836 1.67376 11.8836H6.68393V11.4499C6.68393 10.1423 7.22003 8.9503 8.08302 8.08735C8.95038 7.22216 10.1403 6.68608 11.4478 6.68608H11.7289V1.67591C11.7289 1.2139 12.1038 0.839066 12.5658 0.839066C13.0278 0.839066 13.4026 1.2139 13.4026 1.67591V6.68608H16.4667V1.67591C16.4667 1.2139 16.8415 0.839066 17.3035 0.839066C17.7655 0.839066 18.1404 1.2139 18.1404 1.67591V6.68608H21.2044V1.67591C21.2044 1.2139 21.5793 0.839066 22.0413 0.839066C22.5033 0.839066 22.8781 1.2139 22.8781 1.67591V6.68608H25.9422V1.67591C25.9422 1.2139 26.317 0.839066 26.779 0.839066C27.241 0.839066 27.6159 1.2139 27.6159 1.67591V6.68608H30.6799V1.67591C30.6799 1.2139 31.0548 0.839066 31.5168 0.839066C31.9788 0.839066 32.3536 1.2139 32.3536 1.67591V6.68608H35.4177V1.67591C35.4177 1.2139 35.7925 0.839066 36.2545 0.839066C36.7165 0.839066 37.0914 1.2139 37.0914 1.67591V6.68608H40.1554V1.67591C40.1554 1.2139 40.5303 0.839066 40.9923 0.839066C41.4543 0.839066 41.8291 1.2139 41.8291 1.67591V6.68608H42.1103C43.4179 6.68608 44.6099 7.22218 45.4729 8.08517C46.338 8.95253 46.8741 10.1424 46.8741 11.4499V11.8814H51.8843C52.3463 11.8814 52.7211 12.2563 52.7211 12.7183C52.7211 13.1803 52.3463 13.5551 51.8843 13.5551H46.8741V16.6192H51.8843C52.3463 16.6192 52.7211 16.994 52.7211 17.456C52.7211 17.918 52.3463 18.2929 51.8843 18.2929H46.8741V21.3569H51.8843C52.3463 21.3569 52.7211 21.7318 52.7211 22.1938C52.7211 22.6558 52.3463 23.0306 51.8843 23.0306H46.8741V26.0947H51.8843C52.3463 26.0947 52.7211 26.4695 52.7211 26.9315C52.7211 27.3935 52.3463 27.7684 51.8843 27.7684H46.8741V30.8325H51.8843C52.3463 30.8325 52.7211 31.2073 52.7211 31.6693C52.7211 32.1313 52.3463 32.5061 51.8843 32.5061H46.0376C45.5756 32.5061 45.2007 32.1313 45.2007 31.6693V11.4523C45.2007 10.6024 44.852 9.82872 44.2941 9.26865C43.7341 8.70858 42.9604 8.36208 42.1105 8.36208H11.4503C10.6004 8.36208 9.82667 8.71076 9.2666 9.26865C8.70653 9.82872 8.36002 10.6024 8.36002 11.4523V42.1125C8.36002 42.9624 8.70871 43.7361 9.2666 44.2962C9.82667 44.8563 10.6003 45.2028 11.4503 45.2028H42.1105C42.9604 45.2028 43.7341 44.8541 44.2941 44.2962C44.8542 43.7361 45.2007 42.9625 45.2007 42.1125V36.4069C45.2007 35.9449 45.5756 35.5701 46.0376 35.5701H51.8843V35.568ZM19.8991 17.249H22.2549L23.5799 15.9262V13.2631H15.3532C14.7779 13.2631 14.2548 13.4985 13.8757 13.8777C13.4965 14.2569 13.2611 14.7799 13.2611 15.3552V17.9093C13.2611 18.3713 12.8862 18.7462 12.4242 18.7462C11.9622 18.7462 11.5874 18.3713 11.5874 17.9093V15.3552C11.5874 14.3222 12.0102 13.3808 12.6923 12.6987C13.3766 12.0144 14.3181 11.5894 15.351 11.5894H38.2052C39.2382 11.5894 40.1796 12.0122 40.8617 12.6943C41.546 13.3787 41.971 14.3201 41.971 15.353V38.2072C41.971 39.2402 41.5482 40.1816 40.866 40.8637C40.1817 41.548 39.2403 41.973 38.2073 41.973H15.3532C14.3202 41.973 13.3787 41.5502 12.6967 40.8681C12.0123 40.1838 11.5874 39.2423 11.5874 38.2094V25.1318C11.5874 24.6698 11.9622 24.2949 12.4242 24.2949C12.8862 24.2949 13.2611 24.6698 13.2611 25.1318V38.2094C13.2611 38.7847 13.4964 39.3078 13.8757 39.6869C14.2548 40.0661 14.7779 40.3015 15.3532 40.3015H21.2418L16.9965 35.4068C16.8592 35.2499 16.7938 35.056 16.7938 34.862L16.7895 27.5703C16.3732 27.4374 15.9984 27.2042 15.6977 26.9035C15.2052 26.411 14.8979 25.7267 14.8979 24.9749C14.8979 24.2252 15.2052 23.5431 15.6999 23.0484C16.1902 22.5537 16.8745 22.2486 17.6263 22.2486C18.3781 22.2486 19.0625 22.5537 19.555 23.0462C20.0475 23.5387 20.3526 24.2209 20.3526 24.9749C20.3526 25.7267 20.0475 26.411 19.555 26.9035L19.5005 26.9536C19.2085 27.2304 18.8554 27.444 18.4631 27.5704V34.5569L23.4471 40.306H28.7842V35.1455C28.7842 34.9559 28.8474 34.7793 28.9563 34.6399L32.6524 29.8128C32.8267 29.584 33.097 29.4707 33.365 29.4859L40.2974 29.5164V27.627H31.8442L29.2269 30.2421C29.0634 30.4034 28.852 30.484 28.6385 30.484L25.788 30.4862C25.6528 30.9024 25.4218 31.2773 25.1211 31.578C24.6286 32.0705 23.9443 32.3778 23.1925 32.3778C22.4428 32.3778 21.7607 32.0705 21.266 31.5758C20.7713 31.0855 20.4662 30.4012 20.4662 29.6494C20.4662 28.8975 20.7713 28.2132 21.2638 27.7207L21.3183 27.6706C21.8086 27.2064 22.469 26.9209 23.1925 26.9209C23.94 26.9209 24.6221 27.226 25.1168 27.7207C25.4197 28.0258 25.6529 28.3984 25.788 28.8125H28.2963L30.8679 26.2409C31.0204 26.0622 31.2471 25.9511 31.5021 25.9511H40.3001V24.1924L27.7519 24.1903C27.6168 24.6087 27.3858 24.9835 27.0829 25.2864L27.0284 25.3365C26.538 25.8007 25.8777 26.0862 25.1542 26.0862C24.4023 26.0862 23.7181 25.7811 23.2255 25.2864C22.733 24.7939 22.4279 24.1096 22.4279 23.3578C22.4279 22.6059 22.733 21.9217 23.2255 21.4292L23.28 21.379C23.7704 20.9148 24.4307 20.6316 25.1542 20.6316C25.9061 20.6316 26.5904 20.9367 27.0829 21.4292C27.3858 21.7321 27.6168 22.1069 27.7519 22.5232L40.3001 22.5253V20.8103H30.249C29.787 20.8103 29.4122 20.4354 29.4122 19.9734V13.2698H25.2563V16.275C25.2541 16.4885 25.1713 16.7043 25.0079 16.8677L23.2339 18.6395C23.0814 18.8182 22.8547 18.9293 22.5998 18.9293H19.8997C19.7646 19.3434 19.5336 19.7161 19.2328 20.0168C18.7338 20.5137 18.0517 20.8188 17.3042 20.8188C16.5523 20.8188 15.8681 20.5137 15.3755 20.0211C14.883 19.5286 14.5757 18.8443 14.5757 18.0925C14.5757 17.3406 14.8808 16.6564 15.3755 16.1638C15.8681 15.6713 16.5524 15.3662 17.3042 15.3662C18.056 15.3662 18.7403 15.6713 19.2328 16.1638C19.5357 16.4668 19.7668 16.8394 19.9019 17.2556L19.8991 17.249ZM18.0467 17.3405C17.8571 17.1509 17.5912 17.0311 17.3014 17.0311C17.0116 17.0311 16.7457 17.1487 16.5561 17.3405C16.3665 17.5301 16.2467 17.796 16.2467 18.0858C16.2467 18.3756 16.3643 18.6415 16.5561 18.8311C16.7457 19.0207 17.0116 19.1406 17.3014 19.1406C17.5934 19.1406 17.8571 19.0229 18.0467 18.8355C18.2385 18.6437 18.3562 18.38 18.3562 18.088C18.3562 17.7981 18.2385 17.5323 18.0467 17.3427V17.3405ZM18.3692 24.2249C18.1796 24.0353 17.9138 23.9155 17.6239 23.9155C17.3341 23.9155 17.0682 24.0332 16.8786 24.2249C16.6869 24.4124 16.5692 24.6782 16.5692 24.9702C16.5692 25.2601 16.6869 25.5259 16.8786 25.7155C17.0682 25.9051 17.3341 26.025 17.6239 26.025C17.8985 26.025 18.1513 25.9204 18.3365 25.7504L18.3692 25.7155C18.5588 25.5259 18.6787 25.2601 18.6787 24.9702C18.6787 24.6804 18.561 24.4145 18.3692 24.2249ZM40.2951 31.1746L33.727 31.1463L30.4515 35.4221V40.2993H38.2051C38.7804 40.2993 39.3035 40.0639 39.6826 39.6847C40.0618 39.3055 40.2972 38.7825 40.2972 38.2072V31.1749L40.2951 31.1746ZM23.9353 28.8951C23.7457 28.7055 23.4821 28.5879 23.1901 28.5879C22.9155 28.5879 22.6627 28.6925 22.4775 28.8624L22.4448 28.8973C22.2552 29.0869 22.1353 29.3528 22.1353 29.6426C22.1353 29.9324 22.253 30.1983 22.4448 30.3879C22.6322 30.5797 22.8981 30.6974 23.1901 30.6974C23.4799 30.6974 23.7458 30.5797 23.9353 30.3879C24.1249 30.1983 24.2448 29.9324 24.2448 29.6426C24.2448 29.3506 24.1271 29.0869 23.9375 28.8951L23.9353 28.8951ZM25.8945 22.606C25.7049 22.4164 25.439 22.2965 25.1492 22.2965C24.8724 22.2965 24.6218 22.4011 24.4344 22.5733L24.4039 22.606C24.2143 22.7956 24.0945 23.0615 24.0945 23.3513C24.0945 23.6411 24.2121 23.907 24.4039 24.0966C24.5935 24.2862 24.8594 24.406 25.1492 24.406C25.4238 24.406 25.6766 24.3014 25.8618 24.1314L25.8945 24.0966C26.0841 23.907 26.204 23.6411 26.204 23.3513C26.204 23.0615 26.0863 22.7956 25.8945 22.606ZM31.0812 13.2635V19.1303H40.2954V15.3536C40.2954 14.7783 40.06 14.2552 39.6808 13.8761C39.3016 13.4969 38.7786 13.2615 38.2033 13.2615H31.079L31.0812 13.2635ZM13.2592 21.5644C13.2592 22.0264 12.8844 22.4012 12.4224 22.4012C11.9604 22.4012 11.5856 22.0264 11.5856 21.5644V21.475C11.5856 21.013 11.9604 20.6382 12.4224 20.6382C12.8844 20.6382 13.2592 21.013 13.2592 21.475V21.5644Z" fill="#363636"/>
</g>
<defs>
<clipPath id="clip0_117_11">
<rect width="53" height="53" fill="white"/>
</clipPath>
</defs>
</svg>
