<svg width="84" height="53" viewBox="0 0 84 53" fill="none" xmlns="http://www.w3.org/2000/svg">
<path d="M41.801 25.199C40.801 22.5974 38.9026 20.4998 36.4026 19.3006C36.301 19.199 36.1018 19.1014 36.0041 19.1014C34.6057 18.4998 33.1057 18.1014 31.5041 18.1014C30.3049 18.1014 29.1057 18.3006 28.0041 18.7029C27.8049 18.7029 27.7033 18.8045 27.5041 18.8045C24.9025 19.8045 22.8049 21.7029 21.6057 24.2029C21.5042 24.3045 21.4065 24.5037 21.4065 24.6013C20.8049 25.9997 20.4065 27.4997 20.4065 29.1013C20.4065 30.3005 20.6057 31.4997 21.0081 32.6013C21.0081 32.8006 21.1096 32.9021 21.1096 33.1013C22.1096 35.7029 24.1096 37.8005 26.6096 39.1013C26.7112 39.1013 26.7112 39.2029 26.8088 39.2029C28.2072 39.9021 29.8088 40.3045 31.508 40.3045C35.8088 40.3045 39.6096 37.8045 41.4064 34.1053C41.508 34.0037 41.6057 33.8045 41.6057 33.7069C42.2072 32.3085 42.6057 30.8085 42.6057 29.2069C42.6057 28.0077 42.4064 26.8085 42.0041 25.7069C42.0002 25.4998 41.8986 25.3006 41.801 25.199ZM35.6994 21.3982C37.0002 22.0974 38.0978 23.0974 38.8986 24.2966C36.6994 24.195 34.5002 24.8982 32.797 26.3982C32.797 26.3982 32.6954 26.3982 32.6954 26.2966C32.8985 24.3005 34.0002 22.4997 35.6994 21.3982ZM29.0002 20.6013C29.8009 20.4021 30.6018 20.2029 31.5002 20.2029C32.1017 20.2029 32.6994 20.3044 33.301 20.4021C31.6994 21.9021 30.6018 24.0037 30.4026 26.2029H30.301C29.1018 24.699 28.6018 22.6013 29.0002 20.6013ZM32.301 29.1013C32.301 29.6013 31.9025 29.9998 31.4025 29.9998C30.9025 29.9998 30.5041 29.6013 30.5041 29.1013C30.5041 28.6013 30.9025 28.2029 31.4025 28.2029C31.8986 28.199 32.301 28.6013 32.301 29.1013ZM26.6018 21.699C26.5002 23.8982 27.2033 26.0974 28.7034 27.8006C28.7034 27.8006 28.7034 27.9022 28.6018 27.9022C26.6018 27.6014 24.801 26.5038 23.7034 24.8006C24.3987 23.6014 25.3987 22.4998 26.6018 21.699ZM23.0002 31.6013C22.8009 30.8005 22.6017 29.9997 22.6017 29.1013C22.6017 28.4998 22.7033 27.9021 22.8009 27.3005C24.3009 28.9021 26.4025 29.9997 28.6017 30.1989V30.3005C27.1017 31.4997 25.0002 31.9997 23.0002 31.6013ZM27.1994 36.8982C25.8986 36.199 24.801 35.199 24.0002 33.9998H24.3986C26.5002 33.9998 28.5002 33.199 30.0978 31.8982C30.1994 31.8982 30.1994 31.9998 30.297 31.9998C30.1017 33.9998 28.8987 35.699 27.1994 36.8982ZM34.0002 37.6013C33.1994 37.8006 32.3986 37.9998 31.5002 37.9998C30.8986 37.9998 30.301 37.8982 29.6994 37.8006C31.301 36.3006 32.3986 34.199 32.5978 31.9998H32.6993C33.8985 33.6014 34.3986 35.6013 34.0002 37.6013ZM36.301 36.4997C36.4025 34.3005 35.6994 32.1013 34.1994 30.3981C34.1994 30.3981 34.1994 30.2966 34.3009 30.2966C36.3009 30.5974 38.1017 31.695 39.1993 33.3982C38.5001 34.6013 37.5002 35.6989 36.301 36.4997ZM40.1994 30.9997C38.6994 29.3981 36.5978 28.3005 34.3986 28.1013V27.9998C36.0002 26.8006 38.0978 26.3006 40.0002 26.699C40.1994 27.4998 40.3986 28.3006 40.3986 29.199C40.3986 29.8005 40.3009 30.3981 40.1994 30.9997Z" fill="#363636"/>
<path d="M55.3011 32.602C55.3011 32.8012 55.4027 32.9028 55.4027 33.102C56.4027 35.7036 58.4026 37.8012 60.9026 39.102C61.0042 39.102 61.0042 39.2036 61.1019 39.2036C62.5003 39.9028 64.1019 40.3052 65.8011 40.3052C70.1019 40.3052 73.9027 37.8052 75.6995 34.106C75.801 34.0044 75.8987 33.8052 75.8987 33.7075C76.5002 32.3091 76.8987 30.8091 76.8987 29.2075C76.8987 28.0083 76.6995 26.8091 76.2971 25.7075C76.2971 25.5083 76.1956 25.4067 76.1956 25.2075C75.1956 22.6059 73.2972 20.5083 70.7972 19.3091C70.6956 19.2076 70.4964 19.1099 70.3987 19.1099C69.0003 18.5083 67.5003 18.1099 65.8987 18.1099C64.6995 18.1099 63.5003 18.3091 62.3987 18.7115C62.1995 18.7115 62.098 18.813 61.8987 18.813C59.2971 19.813 57.1995 21.7114 56.0003 24.2114C55.8988 24.313 55.8011 24.5122 55.8011 24.6099C55.1996 26.0083 54.8011 27.5083 54.8011 29.1099C54.6996 30.3013 54.8987 31.5004 55.3011 32.602ZM61.5003 36.8989C60.1995 36.1997 59.1019 35.1997 58.3011 34.0005H58.6995C60.8011 34.0005 62.8011 33.1997 64.3987 31.8989C64.5003 31.8989 64.5003 32.0005 64.598 32.0005C64.3011 34.0005 63.1996 35.6997 61.5003 36.8989ZM68.1995 37.602C67.3987 37.8012 66.5979 38.0005 65.6995 38.0005C65.0979 38.0005 64.5003 37.8989 63.8987 37.8012C65.5003 36.3012 66.5979 34.1996 66.7971 32.0004H66.8987C68.1995 33.602 68.6018 35.602 68.1995 37.602ZM64.8987 29.102C64.8987 28.602 65.2971 28.2036 65.7971 28.2036C66.2971 28.2036 66.6956 28.602 66.6956 29.102C66.6995 29.602 66.1995 30.0005 65.801 30.0005C65.301 30.0005 64.8987 29.602 64.8987 29.102ZM70.6018 36.5004C70.7034 34.3012 70.0002 32.102 68.5002 30.3988C68.5002 30.3988 68.5002 30.2973 68.6018 30.2973C70.6018 30.598 72.4026 31.6957 73.5002 33.3989C72.8009 34.602 71.801 35.6996 70.6018 36.5004ZM74.1995 26.602C74.3987 27.4028 74.5979 28.2036 74.5979 29.102C74.5979 29.7036 74.4964 30.3012 74.3987 30.9028C72.8987 29.3012 70.7971 28.2036 68.5979 28.0044V27.9029C70.1995 26.6998 72.301 26.1997 74.1995 26.602ZM70.0003 21.3989C71.3011 22.0981 72.3987 23.0981 73.1995 24.2973C71.0003 24.1958 68.8011 24.8989 67.0979 26.3989C67.0979 26.3989 66.9963 26.3989 66.9963 26.2974C67.1994 24.3013 68.3011 22.5004 70.0003 21.3989ZM63.3011 20.602C64.1019 20.4028 64.9027 20.2036 65.8011 20.2036C66.4027 20.2036 67.0003 20.3052 67.6019 20.4028C66.0003 21.9028 64.9027 24.0044 64.7035 26.2036H64.6019C63.3988 24.6997 62.8988 22.602 63.3011 20.602ZM60.8988 21.6997C60.7972 23.8989 61.5003 26.0981 63.0004 27.8013C63.0004 27.8013 63.0004 27.9029 62.8988 27.9029C60.8988 27.6021 59.098 26.5045 58.0004 24.8013C58.6997 23.6021 59.6996 22.5005 60.8988 21.6997ZM57.1019 27.3013C58.6019 28.9029 60.7035 30.0005 62.9027 30.1997V30.3013C61.3011 31.5005 59.2035 32.0005 57.3011 31.6021C57.1019 30.8013 56.9026 30.0005 56.9026 29.1021C56.8987 28.5005 57.0003 27.899 57.1019 27.3013Z" fill="#363636"/>
<path d="M80.8981 12.898H17.5V4.0972C17.5 3.49564 17 2.9956 16.3984 2.9956H3.09745C2.49589 2.9956 1.99585 3.4956 1.99585 4.0972L1.99976 8.9995C1.99976 9.60106 2.49976 10.1011 3.10136 10.1011H10.4022V16.6011H5.20296C4.6014 16.6011 4.10136 17.1011 4.10136 17.7027V27.2027C4.10136 27.8043 4.60136 28.3043 5.20296 28.3043H10.4022V31.8043H5.20296C4.6014 31.8043 4.10136 32.3043 4.10136 32.9059V38.2067C4.10136 38.8083 4.60136 39.3083 5.20296 39.3083H10.4022V50.0073C10.4022 50.6089 10.9022 51.1089 11.5038 51.1089H16.4022C17.0037 51.1089 17.5038 50.6089 17.5038 50.0073V45.4057H80.9017C81.5033 45.4057 82.0034 44.9057 82.0034 44.3041L81.9995 13.9991C81.9995 13.3975 81.4997 12.898 80.8981 12.898ZM10.3981 37.101H6.29645V33.9994H10.3981V37.101ZM10.3981 25.999H6.29645V18.6982H10.3981V25.999ZM15.1988 48.8H12.5972L12.6012 38.198V8.999C12.6012 8.39744 12.1012 7.8974 11.4996 7.8974H4.19876V5.1982H15.3008V48.8002L15.1988 48.8ZM52.3008 15.101L50 18.8002H47.1992L44.8984 15.101H52.3008ZM44.8985 43.101L47.1993 39.4018L50.0001 39.3979L52.3009 43.0971L44.8985 43.101ZM79.8006 43.101H54.8985L51.5977 37.7026L51.3946 37.4995C51.2931 37.3979 51.2931 37.3979 51.1954 37.3979C51.0938 37.3979 51.0938 37.2964 50.9962 37.2964H50.797H50.6954H46.5938H46.4922H46.293C46.1915 37.2964 46.1915 37.2964 46.0938 37.3979C45.9923 37.3979 45.9922 37.4995 45.8946 37.4995L45.6915 37.7026L42.3907 43.101H17.4997V15.101H42.3007L45.6015 20.4994C45.6015 20.4994 45.703 20.4994 45.703 20.601L45.9022 20.8002L46.0038 20.9017C46.1054 21.0033 46.3046 21.0033 46.5038 21.0033H50.6054C50.8046 21.0033 50.9062 21.0033 51.1054 20.9017C51.207 20.9017 51.207 20.8002 51.207 20.8002C51.3085 20.6986 51.4062 20.6986 51.4062 20.601C51.4062 20.601 51.5078 20.601 51.5078 20.4994L54.8085 15.101H79.6095L79.6017 43.101H79.8006Z" fill="#363636"/>
</svg>
