<svg width="41" height="53" viewBox="0 0 41 53" fill="none" xmlns="http://www.w3.org/2000/svg">
<g clip-path="url(#clip0_122_1990)">
<path d="M36.0827 0.621094H4.91717C2.52997 0.621094 0.588623 2.55554 0.588623 4.93424V48.0658C0.588623 50.4445 2.52997 52.3789 4.91717 52.3789H36.0827C38.4699 52.3789 40.4113 50.4445 40.4113 48.0658V4.93424C40.4113 2.55554 38.4699 0.621094 36.0827 0.621094ZM38.6798 48.066C38.6798 49.4937 37.5154 50.6539 36.0827 50.6539H4.91717C3.48444 50.6539 2.32004 49.4937 2.32004 48.066V4.93452C2.32004 3.50689 3.48444 2.34663 4.91717 2.34663H36.0827C37.5154 2.34663 38.6798 3.50689 38.6798 4.93452V48.066Z" fill="#494949"/>
<path d="M9.54467 33.5457C10.3974 34.2897 11.5358 33.0152 10.696 32.2582C0.677641 23.373 7.07303 6.65316 20.5 6.66199C41.7098 7.53969 38.7727 38.4736 18.0046 35.7717C17.5307 35.6897 17.0848 35.9981 16.9982 36.4661C16.797 37.9584 19.5023 37.5919 20.5 37.7169C42.3181 36.8176 42.3181 5.83409 20.5 4.93695C5.48849 4.93048 -1.65326 23.615 9.54472 33.5481L9.54467 33.5457Z" fill="#494949"/>
<path d="M16.1716 21.3242C16.1716 23.7029 18.113 25.6374 20.5002 25.6374C26.2291 25.4346 26.2269 17.2137 20.5002 17.0111C18.113 17.0111 16.1716 18.9455 16.1716 21.3242ZM20.5002 18.7363C23.9241 18.8247 23.9241 23.8237 20.5002 23.9121C17.0763 23.8237 17.0763 18.8248 20.5002 18.7363Z" fill="#494949"/>
<path d="M20.5 8.38504C19.3659 8.40661 19.3594 10.0887 20.5 10.1103C26.7048 10.1103 31.7539 15.1416 31.7539 21.3242C31.7539 21.8008 32.1413 22.1869 32.6196 22.1869C33.0979 22.1869 33.4853 21.8008 33.4853 21.3242C33.4853 14.1902 27.6589 8.38449 20.4994 8.38449L20.5 8.38504Z" fill="#494949"/>
<path d="M31.7539 24.7747C31.7755 25.9069 33.4702 25.9091 33.4896 24.7747C33.4723 23.6468 31.7712 23.6339 31.7539 24.7747Z" fill="#494949"/>
<path d="M19.6346 22.1871C19.6541 23.3215 21.3465 23.3215 21.366 22.1871C22.5044 22.1677 22.5044 20.4813 21.366 20.4619C21.3465 19.3275 19.6541 19.3275 19.6346 20.4619C18.4962 20.4813 18.4962 22.1677 19.6346 22.1871Z" fill="#494949"/>
<path d="M36.0828 41.1644H19.634V39.4392C19.634 38.9626 19.2466 38.5765 18.7683 38.5765H15.3206L18.8981 28.5137C19.0345 28.1277 18.883 27.7007 18.5324 27.4893C18.1818 27.2758 17.7316 27.3384 17.4503 27.636L7.34984 38.3712C7.28924 38.4359 7.24596 38.5093 7.19402 38.5783H4.91503C4.43672 38.5783 4.04932 38.9643 4.04932 39.4409V45.4796C4.04932 45.9562 4.43672 46.3422 4.91503 46.3422H9.24357V48.0675C9.24357 48.5441 9.63098 48.9301 10.1093 48.9301H36.0806C36.5589 48.9301 36.9463 48.5441 36.9463 48.0675V42.0288C36.9463 41.5522 36.5589 41.1662 36.0806 41.1662L36.0828 41.1644ZM8.6139 39.5492L15.8859 31.82L13.2974 39.0986C13.293 39.1116 12.3343 41.8073 12.3343 41.8073C12.1698 42.3119 11.5161 42.5448 11.0681 42.2559L8.79346 40.8756C8.33031 40.6125 8.23725 39.9267 8.61167 39.5494L8.6139 39.5492ZM5.78301 44.615V40.3018H6.66822C6.68337 41.1428 7.18332 41.9149 7.89534 42.3505L10.17 43.7307C11.5184 44.5955 13.4727 43.9011 13.9683 42.385L14.7085 40.304H17.9029V44.6171H5.78301V44.615ZM35.2171 47.2028H10.9773V46.3402H18.7684C19.2467 46.3402 19.6341 45.9542 19.6341 45.4776V42.8897H35.2169L35.2171 47.2028Z" fill="#494949"/>
<path d="M24.8283 38.5768C23.6921 38.5962 23.6899 40.2827 24.8283 40.3021H30.0226C31.1589 40.2827 31.161 38.5963 30.0226 38.5768H24.8283Z" fill="#494949"/>
<path d="M33.4858 38.5768C32.3496 38.5962 32.3474 40.2827 33.4858 40.3021H36.0829C37.2192 40.2827 37.2214 38.5963 36.0829 38.5768H33.4858Z" fill="#494949"/>
<path d="M7.51409 47.2031H4.91697C3.78071 47.2225 3.77855 48.909 4.91697 48.9284H7.51409C8.65035 48.909 8.65251 47.2226 7.51409 47.2031Z" fill="#494949"/>
<path d="M35.2168 3.20898C31.793 3.29741 31.793 8.29632 35.2168 8.38477C38.6407 8.29634 38.6407 3.29743 35.2168 3.20898ZM35.2168 6.65951C34.0784 6.6401 34.0784 4.95368 35.2168 4.93424C36.3553 4.95365 36.3553 6.64007 35.2168 6.65951Z" fill="#494949"/>
<path d="M8.38005 5.79686C8.29131 2.38516 3.27455 2.38516 3.18579 5.79686C3.27453 9.20857 8.29129 9.20857 8.38005 5.79686ZM4.91721 5.79686C4.93669 4.6625 6.62913 4.6625 6.64863 5.79686C6.62915 6.93123 4.93671 6.93123 4.91721 5.79686Z" fill="#494949"/>
</g>
<defs>
<clipPath id="clip0_122_1990">
<rect width="41" height="53" fill="white"/>
</clipPath>
</defs>
</svg>
