<svg width="69" height="53" viewBox="0 0 69 53" fill="none" xmlns="http://www.w3.org/2000/svg">
<g clip-path="url(#clip0_122_1942)">
<path d="M62.1081 5.26601H6.8912C6.55825 5.2607 6.23851 5.39076 6.00333 5.62699C5.76815 5.86322 5.63867 6.18438 5.64395 6.51881V33.9959C5.64131 34.3304 5.77079 34.6489 6.00597 34.8851C6.24116 35.1213 6.55825 35.2514 6.8912 35.2487H62.1081C62.4411 35.2514 62.7582 35.1213 62.9933 34.8851C63.2285 34.6489 63.358 34.3304 63.3554 33.9959V6.51881C63.358 6.18438 63.2285 5.86587 62.9933 5.62964C62.7582 5.39341 62.4411 5.26336 62.1081 5.26601ZM60.8608 32.1166C60.8635 32.2838 60.8001 32.4458 60.6812 32.5625C60.5649 32.682 60.4037 32.7457 60.2372 32.743H8.76186C8.59539 32.7457 8.43419 32.682 8.31793 32.5625C8.19902 32.4457 8.1356 32.2838 8.13824 32.1166V8.38757C8.1356 8.22036 8.19902 8.05844 8.31793 7.94166C8.4342 7.82222 8.59539 7.75852 8.76186 7.76118H60.2372C60.4037 7.75852 60.5649 7.82222 60.6812 7.94166C60.8001 8.05845 60.8635 8.22036 60.8608 8.38757V32.1166Z" fill="#494949"/>
<path d="M65.8395 0.265671H3.16045C1.7864 0.27098 0.676514 1.39104 0.676514 2.77128V37.7438C0.681799 39.1187 1.79161 40.2335 3.16045 40.2388H29.5218V45.2394H25.9175C24.6941 45.2554 23.6027 46.0145 23.1588 47.1611L22.662 48.4139C22.2868 49.4199 22.4163 50.5453 23.0108 51.4398C23.5525 52.244 24.4536 52.727 25.4208 52.735H43.5799C44.5471 52.727 45.4481 52.244 45.9899 51.4398C46.5897 50.5479 46.7139 49.4145 46.3175 48.4139L45.8207 47.1611C45.3953 46.0118 44.304 45.2474 43.0831 45.2394H39.4788V40.2388H65.8402C67.209 40.2335 68.3189 39.1187 68.3241 37.7438V2.77128C68.3241 1.39111 67.2143 0.270971 65.8402 0.265671H65.8395ZM43.0824 47.734C43.2858 47.7525 43.4602 47.8906 43.5263 48.0843L44.0125 49.3372C44.1816 49.7406 43.9385 50.2396 43.5897 50.2396H25.4204C25.0716 50.2396 24.8285 49.7406 24.9976 49.3372L25.4732 48.0843C25.5393 47.8906 25.7137 47.7525 25.9172 47.734H43.0824ZM32.016 45.239V40.2383H36.9944V45.239H32.016ZM65.8395 36.4906C65.8422 36.825 65.7127 37.1435 65.4775 37.3797C65.2423 37.616 64.9252 37.746 64.5923 37.7434H4.40734C4.07439 37.746 3.7573 37.616 3.52211 37.3797C3.28693 37.1435 3.15746 36.825 3.16009 36.4906V4.01311C3.15745 3.68133 3.28693 3.36282 3.52211 3.12658C3.7573 2.89301 4.07703 2.76561 4.40734 2.77091H64.5923C64.9252 2.76826 65.2423 2.89832 65.4775 3.13455C65.7127 3.37078 65.8422 3.68929 65.8395 4.02372V36.4906Z" fill="#494949"/>
</g>
<defs>
<clipPath id="clip0_122_1942">
<rect width="69" height="53" fill="white"/>
</clipPath>
</defs>
</svg>
