<svg width="57" height="53" viewBox="0 0 57 53" fill="none" xmlns="http://www.w3.org/2000/svg">
<g clip-path="url(#clip0_122_1958)">
<path d="M27.957 21.0522C29.4558 21.0522 30.6723 19.8318 30.6723 18.3281C30.6723 16.8244 29.4558 15.604 27.957 15.604C26.4582 15.604 25.2417 16.8244 25.2417 18.3281C25.2417 19.8318 26.4582 21.0522 27.957 21.0522ZM27.957 16.6936C28.8531 16.6936 29.5862 17.4291 29.5862 18.3281C29.5862 19.2271 28.8531 19.9626 27.957 19.9626C27.0609 19.9626 26.3278 19.2271 26.3278 18.3281C26.3278 17.4291 27.0609 16.6936 27.957 16.6936Z" fill="#494949"/>
<path d="M27.957 28.6793C29.4558 28.6793 30.6723 27.4589 30.6723 25.9552C30.6723 24.4516 29.4558 23.2312 27.957 23.2312C26.4582 23.2312 25.2417 24.4516 25.2417 25.9552C25.2417 27.4589 26.4582 28.6793 27.957 28.6793ZM27.957 24.3207C28.8531 24.3207 29.5862 25.0562 29.5862 25.9552C29.5862 26.8542 28.8531 27.5897 27.957 27.5897C27.0609 27.5897 26.3278 26.8542 26.3278 25.9552C26.3278 25.0562 27.0609 24.3207 27.957 24.3207Z" fill="#494949"/>
<path d="M27.957 13.4243C29.4558 13.4243 30.6723 12.2039 30.6723 10.7003C30.6723 9.19661 29.4558 7.97621 27.957 7.97621C26.4582 7.97621 25.2417 9.19661 25.2417 10.7003C25.2417 12.2039 26.4582 13.4243 27.957 13.4243ZM27.957 9.06578C28.8531 9.06578 29.5862 9.80129 29.5862 10.7003C29.5862 11.5992 28.8531 12.3348 27.957 12.3348C27.0609 12.3348 26.3278 11.5992 26.3278 10.7003C26.3278 9.80129 27.0609 9.06578 27.957 9.06578Z" fill="#494949"/>
<path d="M4.06233 9.0658C4.95841 9.0658 5.69156 8.33028 5.69156 7.43131C5.69156 6.53233 4.95841 5.79681 4.06233 5.79681C3.16625 5.79681 2.43311 6.53233 2.43311 7.43131C2.43311 8.33028 3.16625 9.0658 4.06233 9.0658ZM4.06233 6.88652C4.36102 6.88652 4.6054 7.13169 4.6054 7.43134C4.6054 7.73099 4.36102 7.97616 4.06233 7.97616C3.76365 7.97616 3.51927 7.73099 3.51927 7.43134C3.51927 7.13169 3.76365 6.88652 4.06233 6.88652Z" fill="#494949"/>
<path d="M4.06233 47.2035C3.16625 47.2035 2.43311 47.939 2.43311 48.8379C2.43311 49.7369 3.16625 50.4724 4.06233 50.4724C4.95841 50.4724 5.69156 49.7369 5.69156 48.8379C5.69156 47.939 4.95841 47.2035 4.06233 47.2035ZM4.06233 49.3827C3.76365 49.3827 3.51927 49.1376 3.51927 48.8379C3.51927 48.5383 3.76365 48.2931 4.06233 48.2931C4.36102 48.2931 4.6054 48.5383 4.6054 48.8379C4.6054 49.1376 4.36102 49.3827 4.06233 49.3827Z" fill="#494949"/>
<path d="M51.8519 5.79652C50.9558 5.79652 50.2227 6.53204 50.2227 7.43102C50.2227 8.32999 50.9558 9.06551 51.8519 9.06551C52.748 9.06551 53.4811 8.32999 53.4811 7.43102C53.4811 6.53204 52.748 5.79652 51.8519 5.79652ZM51.8519 7.9758C51.5532 7.9758 51.3088 7.73063 51.3088 7.43098C51.3088 7.13133 51.5532 6.88616 51.8519 6.88616C52.1506 6.88616 52.3949 7.13133 52.3949 7.43098C52.3949 7.73063 52.1506 7.9758 51.8519 7.9758Z" fill="#494949"/>
<path d="M51.8519 47.2035C50.9558 47.2035 50.2227 47.939 50.2227 48.8379C50.2227 49.7369 50.9558 50.4724 51.8519 50.4724C52.748 50.4724 53.4811 49.7369 53.4811 48.8379C53.4811 47.939 52.748 47.2035 51.8519 47.2035ZM51.8519 49.3827C51.5532 49.3827 51.3088 49.1376 51.3088 48.8379C51.3088 48.5383 51.5532 48.2931 51.8519 48.2931C52.1506 48.2931 52.3949 48.5383 52.3949 48.8379C52.3949 49.1376 52.1506 49.3827 51.8519 49.3827Z" fill="#494949"/>
<path d="M37.189 28.6793H50.2226C51.1187 28.6793 51.8518 27.9438 51.8518 27.0448V13.9691C51.8518 13.0702 51.1187 12.3346 50.2226 12.3346H37.189C36.293 12.3346 35.5598 13.0702 35.5598 13.9691V27.0448C35.5598 27.9438 36.293 28.6793 37.189 28.6793ZM36.646 13.969C36.646 13.6693 36.8904 13.4242 37.189 13.4242H50.2226C50.5213 13.4242 50.7656 13.6693 50.7656 13.969V27.0446C50.7656 27.3443 50.5213 27.5895 50.2226 27.5895H37.189C36.8904 27.5895 36.646 27.3443 36.646 27.0446V13.969Z" fill="#494949"/>
<path d="M38.2748 21.5968C37.9761 21.5968 37.7317 21.842 37.7317 22.1416C37.7317 22.4413 37.9761 22.6864 38.2748 22.6864H39.904C39.904 23.5854 40.6371 24.3209 41.5332 24.3209V25.9554C41.5332 26.2551 41.7776 26.5002 42.0763 26.5002C42.375 26.5002 42.6193 26.2551 42.6193 25.9554V24.3209H43.1624V25.9554C43.1624 26.2551 43.4068 26.5002 43.7055 26.5002C44.0042 26.5002 44.2485 26.2551 44.2485 25.9554V24.3209H44.7916V25.9554C44.7916 26.2551 45.036 26.5002 45.3347 26.5002C45.6333 26.5002 45.8777 26.2551 45.8777 25.9554V24.3209C46.7738 24.3209 47.5069 23.5854 47.5069 22.6864H49.1362C49.4349 22.6864 49.6792 22.4413 49.6792 22.1416C49.6792 21.842 49.4349 21.5968 49.1362 21.5968H47.5069V21.052H49.1362C49.4349 21.052 49.6792 20.8068 49.6792 20.5072C49.6792 20.2075 49.4349 19.9623 49.1362 19.9623H47.5069V19.4175H49.1362C49.4349 19.4175 49.6792 19.1724 49.6792 18.8727C49.6792 18.5731 49.4349 18.3279 49.1362 18.3279H47.5069C47.5069 17.4289 46.7738 16.6934 45.8777 16.6934V15.0589C45.8777 14.7593 45.6333 14.5141 45.3347 14.5141C45.036 14.5141 44.7916 14.7593 44.7916 15.0589V16.6934H44.2485V15.0589C44.2485 14.7593 44.0042 14.5141 43.7055 14.5141C43.4068 14.5141 43.1624 14.7593 43.1624 15.0589V16.6934H42.6193V15.0589C42.6193 14.7593 42.375 14.5141 42.0763 14.5141C41.7776 14.5141 41.5332 14.7593 41.5332 15.0589V16.6934C40.6371 16.6934 39.904 17.4289 39.904 18.3279H38.2748C37.9761 18.3279 37.7317 18.5731 37.7317 18.8727C37.7317 19.1724 37.9761 19.4175 38.2748 19.4175H39.904V19.9623H38.2748C37.9761 19.9623 37.7317 20.2075 37.7317 20.5072C37.7317 20.8068 37.9761 21.052 38.2748 21.052H39.904V21.5968H38.2748ZM40.99 18.3279C40.99 18.0282 41.2344 17.7831 41.5331 17.7831H45.8776C46.1763 17.7831 46.4207 18.0282 46.4207 18.3279V22.6864C46.4207 22.9861 46.1763 23.2313 45.8776 23.2313H41.5331C41.2344 23.2313 40.99 22.9861 40.99 22.6864V18.3279Z" fill="#494949"/>
<path d="M53.4814 3.61795H48.5939V3.34555C48.5939 2.29406 47.7412 1.43866 46.6931 1.43866C45.645 1.43866 44.7924 2.29406 44.7924 3.34555V3.61795H43.7063V1.98346C43.7063 1.08448 42.9731 0.348969 42.077 0.348969H34.4738C33.5777 0.348969 32.8446 1.08448 32.8446 1.98346V3.61795H31.7584V3.34555C31.7584 2.29406 30.9058 1.43866 29.8577 1.43866C28.8096 1.43866 27.9569 2.29406 27.9569 3.34555V3.61795H3.51924C2.02042 3.61795 0.803955 4.83835 0.803955 6.34201V49.9275C0.803955 51.4312 2.02042 52.6516 3.51924 52.6516H53.4811C54.9799 52.6516 56.1964 51.4312 56.1964 49.9275V6.34201C56.1964 4.83835 54.9802 3.61795 53.4814 3.61795ZM45.8782 3.34555C45.8782 2.89335 46.242 2.5283 46.6928 2.5283C47.1435 2.5283 47.5074 2.89333 47.5074 3.34555V4.98004C47.5074 5.43224 47.1435 5.79729 46.6928 5.79729C46.242 5.79729 45.8782 5.43225 45.8782 4.98004V3.34555ZM33.9304 1.98352C33.9304 1.68386 34.1748 1.4387 34.4735 1.4387H42.0767C42.3754 1.4387 42.6198 1.68386 42.6198 1.98352V6.34207C42.6198 6.64172 42.3754 6.88689 42.0767 6.88689H34.4735C34.1748 6.88689 33.9304 6.64172 33.9304 6.34207V1.98352ZM29.0429 3.34555C29.0429 2.89335 29.4067 2.5283 29.8575 2.5283C30.3082 2.5283 30.6721 2.89333 30.6721 3.34555V4.98004C30.6721 5.43224 30.3082 5.79729 29.8575 5.79729C29.4067 5.79729 29.0429 5.43225 29.0429 4.98004V3.34555ZM17.3669 4.70758H21.1684V12.3354C21.1684 12.635 20.924 12.8802 20.6253 12.8802H17.91C17.6113 12.8802 17.367 12.635 17.367 12.3354L17.3669 4.70758ZM8.67788 4.70758H12.4794V18.3279C12.4794 18.6275 12.235 18.8727 11.9363 18.8727H9.22101C8.92233 18.8727 8.67795 18.6275 8.67795 18.3279L8.67788 4.70758ZM55.1099 49.9277C55.1099 50.8267 54.3768 51.5622 53.4807 51.5622H3.51882C2.62274 51.5622 1.8896 50.8267 1.8896 49.9277V6.34221C1.8896 5.44323 2.62274 4.70772 3.51882 4.70772H7.59182V18.328C7.59182 19.227 8.32497 19.9625 9.22105 19.9625H10.0357V23.7763C10.0357 24.0759 10.28 24.3211 10.5787 24.3211C10.8774 24.3211 11.1218 24.0759 11.1218 23.7763V19.9625H11.9364C12.8325 19.9625 13.5656 19.227 13.5656 18.328V4.70772H16.2809V12.3355C16.2809 13.2345 17.0141 13.97 17.9101 13.97H18.7248V17.7838C18.7248 18.0834 18.9691 18.3286 19.2678 18.3286C19.5665 18.3286 19.8109 18.0834 19.8109 17.7838V13.97H20.6255C21.5216 13.97 22.2547 13.2345 22.2547 12.3355V4.70772H27.9569V4.98012C27.9569 6.03162 28.8095 6.88701 29.8576 6.88701C30.9057 6.88701 31.7584 6.03162 31.7584 4.98012V4.70772H32.8445V6.34221C32.8445 7.24119 33.5776 7.9767 34.4737 7.9767H42.077C42.973 7.9767 43.7062 7.24119 43.7062 6.34221V4.70772H44.7923V4.98012C44.7923 6.03162 45.645 6.88701 46.6931 6.88701C47.7412 6.88701 48.5938 6.03162 48.5938 4.98012V4.70772H53.4813C54.3774 4.70772 55.1106 5.44323 55.1106 6.34221L55.1099 49.9277Z" fill="#494949"/>
<path d="M25.2414 39.5757H45.8781C46.7742 39.5757 47.5074 38.8401 47.5074 37.9412H51.3088C51.6075 37.9412 51.8519 37.696 51.8519 37.3964C51.8519 37.0967 51.6075 36.8515 51.3088 36.8515H47.5074V35.7619H51.3088C51.6075 35.7619 51.8519 35.5167 51.8519 35.2171C51.8519 34.9174 51.6075 34.6723 51.3088 34.6723H47.5074C47.5074 33.7733 46.7742 33.0378 45.8781 33.0378H25.2414C24.3453 33.0378 23.6121 33.7733 23.6121 34.6723H19.8106C19.512 34.6723 19.2676 34.9174 19.2676 35.2171C19.2676 35.5167 19.512 35.7619 19.8106 35.7619H23.6121V36.8515H19.8106C19.512 36.8515 19.2676 37.0967 19.2676 37.3964C19.2676 37.696 19.512 37.9412 19.8106 37.9412H23.6121C23.6121 38.8401 24.3453 39.5757 25.2414 39.5757ZM42.9454 34.1275H45.878C46.1767 34.1275 46.4211 34.3726 46.4211 34.6723V37.9412C46.4211 38.2409 46.1767 38.486 45.878 38.486H42.9454V34.1275ZM38.3837 34.1275H41.8593V38.486H38.3837V34.1275ZM33.8219 34.1275H37.2975V38.486H33.8219V34.1275ZM29.2602 34.1275H32.7358V38.486H29.2602V34.1275ZM24.6985 34.6723C24.6985 34.3726 24.9428 34.1275 25.2415 34.1275H28.1741V38.486H25.2415C24.9428 38.486 24.6985 38.2409 24.6985 37.9412V34.6723Z" fill="#494949"/>
<path d="M51.8519 45.0235C51.8519 44.7238 51.6075 44.4787 51.3088 44.4787H47.5073V43.389H51.3088C51.6075 43.389 51.8519 43.1439 51.8519 42.8442C51.8519 42.5446 51.6075 42.2994 51.3088 42.2994H47.5073C47.5073 41.4004 46.7742 40.6649 45.8781 40.6649H29.5858C28.6898 40.6649 27.9566 41.4004 27.9566 42.2994H24.1551C23.8564 42.2994 23.6121 42.5446 23.6121 42.8442C23.6121 43.1439 23.8564 43.389 24.1551 43.389H27.9566V44.4787H24.1551C23.8564 44.4787 23.6121 44.7238 23.6121 45.0235C23.6121 45.3232 23.8564 45.5683 24.1551 45.5683H27.9566C27.9566 46.4673 28.6898 47.2028 29.5858 47.2028H45.8781C46.7742 47.2028 47.5073 46.4673 47.5073 45.5683H51.3088C51.6075 45.5683 51.8519 45.3232 51.8519 45.0235ZM32.736 46.1131H29.5863C29.2876 46.1131 29.0432 45.868 29.0432 45.5683V42.2994C29.0432 41.9998 29.2876 41.7546 29.5863 41.7546H32.736V46.1131ZM37.2978 46.1131H33.8222V41.7546H37.2978V46.1131ZM41.8595 46.1131H38.3839V41.7546H41.8595V46.1131ZM46.4212 45.5683C46.4212 45.868 46.1769 46.1131 45.8782 46.1131H42.9456V41.7546H45.8782C46.1769 41.7546 46.4212 41.9998 46.4212 42.2994V45.5683Z" fill="#494949"/>
<path d="M16.0094 33.0378V29.224C16.0094 28.9244 15.7651 28.6792 15.4664 28.6792C15.1677 28.6792 14.9233 28.9244 14.9233 29.224V33.0378H13.8372V29.224C13.8372 28.9244 13.5928 28.6792 13.2941 28.6792C12.9954 28.6792 12.7511 28.9244 12.7511 29.224V33.0378C11.855 33.0378 11.1218 33.7733 11.1218 34.6723V41.2101C11.1218 42.1091 11.855 42.8446 12.7511 42.8446V46.6584C12.7511 46.9581 12.9954 47.2032 13.2941 47.2032C13.5928 47.2032 13.8372 46.9581 13.8372 46.6584V42.8446H14.9233V46.6584C14.9233 46.9581 15.1677 47.2032 15.4664 47.2032C15.7651 47.2032 16.0094 46.9581 16.0094 46.6584V42.8446C16.9055 42.8446 17.6387 42.1091 17.6387 41.2101V34.6723C17.6387 33.7733 16.9055 33.0378 16.0094 33.0378ZM16.5525 41.2103C16.5525 41.5099 16.3081 41.7551 16.0094 41.7551H12.7511C12.4524 41.7551 12.208 41.5099 12.208 41.2103V38.4862H16.5525V41.2103ZM16.5525 37.3965H12.208V34.6724C12.208 34.3728 12.4524 34.1276 12.7511 34.1276H16.0094C16.3081 34.1276 16.5525 34.3728 16.5525 34.6724V37.3965Z" fill="#494949"/>
<path d="M8.94962 33.0378V29.224C8.94962 28.9244 8.70525 28.6792 8.40656 28.6792C8.10787 28.6792 7.86349 28.9244 7.86349 29.224V33.0378H6.77737V29.224C6.77737 28.9244 6.53299 28.6792 6.2343 28.6792C5.93562 28.6792 5.69124 28.9244 5.69124 29.224V33.0378C4.79516 33.0378 4.06201 33.7733 4.06201 34.6723V41.2101C4.06201 42.1091 4.79516 42.8446 5.69124 42.8446V46.6584C5.69124 46.9581 5.93562 47.2032 6.2343 47.2032C6.53299 47.2032 6.77737 46.9581 6.77737 46.6584V42.8446H7.86349V46.6584C7.86349 46.9581 8.10787 47.2032 8.40656 47.2032C8.70525 47.2032 8.94962 46.9581 8.94962 46.6584V42.8446C9.8457 42.8446 10.5788 42.1091 10.5788 41.2101V34.6723C10.5788 33.7733 9.8457 33.0378 8.94962 33.0378ZM9.49269 41.2103C9.49269 41.5099 9.24831 41.7551 8.94962 41.7551H5.69124C5.39255 41.7551 5.14817 41.5099 5.14817 41.2103V38.4862H9.49269V41.2103ZM9.49269 37.3965H5.14817V34.6724C5.14817 34.3728 5.39255 34.1276 5.69124 34.1276H8.94962C9.24831 34.1276 9.49269 34.3728 9.49269 34.6724V37.3965Z" fill="#494949"/>
</g>
<defs>
<clipPath id="clip0_122_1958">
<rect width="57" height="53" fill="white"/>
</clipPath>
</defs>
</svg>
