<svg width="56" height="53" viewBox="0 0 56 53" fill="none" xmlns="http://www.w3.org/2000/svg">
<g clip-path="url(#clip0_122_1986)">
<path d="M52.572 0.359192H3.42753C1.77197 0.366675 0.434651 1.71114 0.429688 3.3724V31.9752C0.429688 33.6364 1.77203 34.9833 3.42753 34.9884H6.7883V36.258C6.79078 38.897 8.92361 41.0372 11.5536 41.0397H43.3049C45.0325 41.0397 46.4346 42.4465 46.4346 44.1801C46.4346 45.9137 45.0326 47.3205 43.3049 47.3205H27.7885V45.0581C27.7835 44.6041 27.4181 44.24 26.9657 44.24H23.0679C22.2178 44.245 21.4746 44.8112 21.2384 45.6294H18.5264V47.2731H21.1788V48.9618H18.5264V50.6056H21.2384C21.4721 51.4262 22.2153 51.9974 23.0679 52.0024H26.9657C27.4181 51.9999 27.7835 51.6307 27.7885 51.1767V48.9418H43.3323C45.9647 48.9418 48.0976 46.8016 48.0976 44.1601C48.0976 41.5186 45.9647 39.3784 43.3323 39.3784H11.5809C9.85334 39.3784 8.45131 37.9716 8.45131 36.238V34.9684H52.5717C54.2272 34.9634 55.5695 33.6164 55.5695 31.9552V3.35241C55.5546 1.70118 54.22 0.366663 52.572 0.359192ZM26.1502 50.3586H23.0678C22.9161 50.3561 22.7968 50.2314 22.7968 50.0793V46.1357C22.7968 45.986 22.9186 45.8638 23.0678 45.8638H26.1502V50.3586ZM53.9313 31.9555C53.9337 32.3172 53.7896 32.6664 53.536 32.9233C53.28 33.1802 52.9345 33.3249 52.5715 33.3249H3.42709C2.6863 33.3074 2.09722 32.6963 2.0997 31.9555V3.35274C2.0997 2.61189 2.68884 2.00328 3.42709 1.98336H52.5715C53.3247 1.98586 53.9313 2.59946 53.9313 3.35274L53.9313 31.9555ZM50.7221 4.07111H5.27681C4.82439 4.0736 4.45647 4.44277 4.45399 4.89676V30.4389C4.45647 30.8929 4.82437 31.2596 5.27681 31.2621H50.7221C51.1745 31.2596 51.5424 30.8929 51.5449 30.4389V4.89676C51.5424 4.44278 51.1745 4.0736 50.7221 4.07111ZM49.9068 29.6209H6.12431V5.71475H49.9411L49.9068 29.6209ZM11.0014 23.7019L9.13953 25.5701L10.3004 26.735L12.1623 24.8518C13.8451 26.2736 15.9755 27.0518 18.1754 27.0518C20.3753 27.0518 22.5057 26.2735 24.1885 24.8518L26.0504 26.7201L27.2112 25.5552L25.3469 23.6994C26.7638 22.0108 27.5418 19.8756 27.5418 17.6681C27.5418 15.4606 26.7638 13.3229 25.3469 11.6343L27.2088 9.75852L26.0479 8.60114L24.186 10.4694H24.1885C22.5057 9.04762 20.3753 8.26941 18.1754 8.26941C15.9755 8.26941 13.8451 9.04768 12.1623 10.4694L10.3004 8.60114L9.13954 9.75852L11.0014 11.6343H11.0039C9.58697 13.3229 8.80895 15.4606 8.80895 17.6681C8.80895 19.8756 9.58703 22.0108 11.0039 23.6994L11.0014 23.7019ZM18.1757 25.423C16.4083 25.423 14.6956 24.8118 13.3234 23.6944L14.4247 22.5894C16.6346 24.303 19.7169 24.303 21.9268 22.5894L23.028 23.6944C21.6559 24.8119 19.9431 25.4205 18.1757 25.423ZM13.6292 17.6683C13.6267 16.7404 13.9101 15.8349 14.4371 15.0742L15.5507 16.2041C15.0461 17.1195 15.0461 18.2295 15.5507 19.1449L14.4371 20.2624C13.9076 19.5016 13.6267 18.5962 13.6292 17.6683ZM22.6974 17.6683C22.6974 18.5937 22.4165 19.4967 21.887 20.2549L20.7734 19.1375C21.278 18.222 21.278 17.112 20.7734 16.1966L21.887 15.0717V15.0742C22.4165 15.8349 22.6974 16.7404 22.6974 17.6683ZM19.5156 17.6683C19.5131 18.222 19.1775 18.7184 18.6679 18.928C18.1559 19.1375 17.5717 19.0203 17.1814 18.6261C16.7912 18.2345 16.6768 17.6458 16.8881 17.1345C17.0994 16.6232 17.5966 16.2915 18.1484 16.2915C18.5163 16.284 18.8718 16.4262 19.1353 16.6856C19.3963 16.945 19.543 17.2992 19.5405 17.6684L19.5156 17.6683ZM16.7315 20.2949C17.6388 20.8087 18.7524 20.8087 19.6598 20.2949L20.7808 21.4198C19.2272 22.5023 17.164 22.5023 15.6104 21.4198L16.7315 20.2949ZM19.6623 15.0343H19.6598C18.7524 14.5179 17.6388 14.5179 16.7315 15.0343L15.6104 13.9168C17.164 12.8342 19.2272 12.8342 20.7808 13.9168L19.6623 15.0343ZM25.9265 17.6957L25.924 17.6933C25.924 19.4667 25.315 21.1854 24.2014 22.5622L23.1001 21.4572V21.4597C24.8079 19.2422 24.8079 16.1467 23.1001 13.9292L24.2014 12.8242C25.3026 14.1961 25.9041 15.9047 25.9041 17.6682L25.9265 17.6957ZM18.1756 9.91113C19.943 9.90864 21.6557 10.5173 23.0279 11.6347L21.9266 12.7397C19.7142 11.0361 16.6369 11.0361 14.4245 12.7397L13.3233 11.6347C14.6954 10.5172 16.4082 9.90864 18.1756 9.91113ZM13.2711 13.9021C11.5634 16.1196 11.5634 19.2151 13.2711 21.4326L12.1699 22.5376C9.87052 19.7015 9.87052 15.6355 12.1699 12.7996L13.2711 13.9021ZM32.2901 17.8931H45.3082C46.3547 17.898 47.2074 17.055 47.2223 16.0049V10.2778C47.2223 9.22022 46.3671 8.36213 45.3132 8.36213H32.2875C31.2335 8.36213 30.3784 9.22022 30.3784 10.2778V16.0049C30.3784 17.0624 31.2335 17.9205 32.2875 17.9205L32.2901 17.8931ZM32.0192 10.2502H32.0167C32.0167 10.1005 32.1385 9.97832 32.2876 9.97832H45.3083C45.3804 9.97832 45.4475 10.0083 45.4997 10.0581C45.5494 10.1105 45.5792 10.1779 45.5792 10.2502V16.0047C45.5792 16.1543 45.4574 16.2765 45.3083 16.2765H32.2876C32.1385 16.2765 32.0167 16.1543 32.0167 16.0047L32.0192 10.2502ZM46.4042 20.1203L40.3488 20.1228C39.8964 20.1253 39.5335 20.4945 39.5335 20.946V24.478C39.5335 24.6152 39.5658 24.7523 39.6329 24.8721L40.5949 26.6331C40.7391 26.9 41.015 27.0646 41.3158 27.0671H45.4994C45.8001 27.0646 46.0761 26.9 46.2227 26.6331L47.1499 24.897C47.217 24.7772 47.2493 24.6426 47.2493 24.5054V20.9734C47.2493 20.7489 47.1598 20.5369 46.9983 20.3797C46.8392 20.2251 46.6229 20.1403 46.4017 20.1478L46.4042 20.1203ZM45.5814 24.2709L44.9773 25.3959H41.7731L41.169 24.2709L41.1715 21.7916H45.5788L45.5814 24.2709ZM31.4076 26.6331C31.5493 26.9 31.8277 27.0671 32.1285 27.0671H36.3121C36.6129 27.0646 36.8888 26.9 37.0354 26.6331L37.9428 24.897C38.0099 24.7773 38.0422 24.6426 38.0422 24.5054V20.9734C38.0422 20.5394 37.7116 20.1802 37.2791 20.1477H31.1938C30.7439 20.1527 30.3785 20.5194 30.3785 20.9734V24.5054C30.3785 24.6426 30.4133 24.7773 30.478 24.897L31.4076 26.6331ZM32.0166 21.7916H36.424V24.2984L35.8199 25.4233H32.6406L32.0365 24.2984L32.0166 21.7916ZM44.1674 13.9616H38.1542V12.3203H44.1674V13.9616ZM36.5183 13.9616H33.421V12.3203H36.5158L36.5183 13.9616Z" fill="#494949"/>
</g>
<defs>
<clipPath id="clip0_122_1986">
<rect width="56" height="53" fill="white"/>
</clipPath>
</defs>
</svg>
