<svg width="56" height="53" viewBox="0 0 56 53" fill="none" xmlns="http://www.w3.org/2000/svg">
<path d="M54.9734 6.44791C55.1259 6.33644 55.2161 6.15763 55.2161 5.96721V1.76393C55.2161 1.43649 54.9503 1.16943 54.6244 1.16943H42.0591C41.9296 1.16943 41.8048 1.21123 41.7008 1.29019L38.7472 3.54743H17.2539L14.3003 1.29019C14.1963 1.21123 14.0715 1.16943 13.9421 1.16943H1.37667C1.0508 1.16943 0.785022 1.43649 0.785022 1.76393V5.96721C0.785022 6.15763 0.875154 6.33644 1.02769 6.44791L2.46983 7.50683V15.1681L1.02538 16.2317C0.872852 16.3432 0.782715 16.522 0.782715 16.7101V21.3825C0.782715 21.7099 1.04849 21.977 1.37436 21.977H3.5815V24.355C3.5815 24.6824 3.84728 24.9495 4.17314 24.9495H33.7555C34.0813 24.9495 34.3471 24.6824 34.3471 24.355V21.977H37.3053V24.355C37.3053 24.6824 37.5711 24.9495 37.897 24.9495H52.0965C52.4224 24.9495 52.6881 24.6824 52.6881 24.355V21.977H54.6225C54.9484 21.977 55.2142 21.7099 55.2142 21.3825V16.7101C55.2142 16.522 55.124 16.3432 54.9715 16.2317L53.5271 15.1681V7.50683L54.9692 6.44791H54.9734ZM4.76691 21.9768H7.13349V23.7603H4.76691V21.9768ZM10.8798 21.9768V23.7603H8.31679V21.9768H10.8798ZM14.6261 21.9768V23.7603H12.0631V21.9768H14.6261ZM18.3747 21.9768V23.7603H15.8117V21.9768H18.3747ZM22.121 21.9768V23.7603H19.558V21.9768H22.121ZM25.8673 21.9768V23.7603H23.302V21.9768H25.8673ZM29.6159 21.9768V23.7603H27.0529V21.9768H29.6159ZM33.1658 23.7603H30.7992V21.9768H33.1658V23.7603ZM38.4906 21.9768H40.8572V23.7603H38.4906V21.9768ZM44.4071 21.9768V23.7603H42.0405V21.9768H44.4071ZM47.957 21.9768V23.7603H45.5904V21.9768H47.957ZM51.5068 23.7603H49.1403V21.9768H51.5068V23.7603ZM52.5884 15.9456L54.0329 17.0092V20.7852L1.96801 20.7875V17.0115L3.41245 15.9479C3.56498 15.8365 3.65512 15.6576 3.65512 15.4695V7.20721C3.65512 7.01679 3.56499 6.83798 3.41245 6.72651L1.97031 5.66759V2.3607H13.7453L16.6989 4.61794C16.8029 4.6969 16.9277 4.7387 17.0571 4.7387H38.948C39.0774 4.7387 39.2022 4.6969 39.3062 4.61794L42.2598 2.3607H54.0348V5.66759L52.5927 6.72651C52.4401 6.83798 52.35 7.01679 52.35 7.20721V15.4695C52.35 15.6576 52.4401 15.8365 52.5927 15.9479L52.5884 15.9456Z" fill="#494949"/>
<path d="M49.4886 4.92421L45.2038 10.3467H10.796L6.51116 4.92421C6.30778 4.66645 5.93569 4.62464 5.67919 4.829C5.42266 5.03336 5.38105 5.40724 5.58443 5.66498L10.0472 11.3127C10.1605 11.4544 10.3292 11.538 10.5094 11.538H45.4858C45.6661 11.538 45.8371 11.4544 45.948 11.3127L50.4108 5.66498C50.8753 5.05657 49.9786 4.31577 49.484 4.9265L49.4886 4.92421Z" fill="#494949"/>
<path d="M43.7109 9.01138C43.8842 9.01138 44.0576 8.93474 44.1754 8.78612L46.6437 5.66269C47.1221 5.05428 46.2023 4.3158 45.717 4.92421L43.2487 8.04763C42.9367 8.41687 43.2348 9.02761 43.7109 9.01138Z" fill="#494949"/>
<path d="M11.8269 8.78607C12.3122 9.39216 13.232 8.65602 12.7536 8.04758L10.2854 4.92415C9.80233 4.31806 8.88019 5.05187 9.3586 5.66264L11.8269 8.78607Z" fill="#494949"/>
<path d="M40.3643 13.6538H15.6353C14.8657 13.6654 14.8495 14.8289 15.6353 14.8428H40.3643C41.1339 14.8312 41.1501 13.6677 40.3643 13.6538Z" fill="#494949"/>
<path d="M54.6239 28.219H42.0586C41.9291 28.219 41.8043 28.2608 41.7003 28.3397L38.7467 30.597H17.2534L14.2998 28.3397C14.1958 28.2608 14.071 28.219 13.9416 28.219H1.37618C1.05031 28.219 0.784534 28.4861 0.784534 28.8135V33.0168C0.784534 33.2072 0.874665 33.386 1.0272 33.4975L2.46934 34.5564V42.2177L1.0249 43.2813C0.872364 43.3928 0.782227 43.5716 0.782227 43.7597V48.4321C0.782227 48.7595 1.04801 49.0266 1.37387 49.0266H3.58101V51.4046C3.58101 51.732 3.84679 51.9991 4.17265 51.9991H33.755C34.0808 51.9991 34.3466 51.732 34.3466 51.4046V49.0266H37.3048V51.4046C37.3048 51.732 37.5706 51.9991 37.8965 51.9991H52.096C52.4219 51.9991 52.6876 51.732 52.6876 51.4046V49.0266H54.622C54.9479 49.0266 55.2137 48.7595 55.2137 48.4321V43.7597C55.2137 43.5716 55.1235 43.3928 54.971 43.2813L53.5266 42.2177V34.5564L54.9687 33.4975C55.1212 33.386 55.2114 33.2072 55.2114 33.0168V28.8135C55.2114 28.4861 54.9456 28.219 54.6197 28.219H54.6239ZM4.76592 49.0264H7.13251V50.8099H4.76592V49.0264ZM10.8788 49.0264V50.8099H8.3158V49.0264H10.8788ZM14.6251 49.0264V50.8099H12.0621V49.0264H14.6251ZM18.3737 49.0264V50.8099H15.8107V49.0264H18.3737ZM22.12 49.0264V50.8099H19.557V49.0264H22.12ZM25.8663 49.0264V50.8099H23.301V49.0264H25.8663ZM29.6149 49.0264V50.8099H27.0519V49.0264H29.6149ZM33.1648 50.8099H30.7982V49.0264H33.1648V50.8099ZM38.4896 49.0264H40.8562V50.8099H38.4896V49.0264ZM44.4061 49.0264V50.8099H42.0395V49.0264H44.4061ZM47.956 49.0264V50.8099H45.5894V49.0264H47.956ZM51.5058 50.8099H49.1393V49.0264H51.5058V50.8099ZM54.0319 32.7146L52.5897 33.7735C52.4372 33.885 52.3471 34.0638 52.3471 34.2542V42.5165C52.3471 42.7046 52.4372 42.8834 52.5897 42.9949L54.0342 44.0585V47.8345L1.96696 47.8369V44.0609L3.41141 42.9972C3.56394 42.8858 3.65408 42.707 3.65408 42.5189V34.2565C3.65408 34.0661 3.56395 33.8873 3.41141 33.7758L1.96927 32.7169V29.41H13.7442L16.6978 31.6673C16.8018 31.7462 16.9266 31.788 17.0561 31.788H38.947C39.0764 31.788 39.2012 31.7462 39.3052 31.6673L42.2588 29.41H54.0337V32.7169L54.0319 32.7146Z" fill="#494949"/>
<path d="M10.7962 37.3968L6.51135 31.9744C6.03757 31.3729 5.10157 32.0882 5.58459 32.7129L10.0474 38.3606C10.1606 38.5022 10.3293 38.5858 10.5096 38.5858H45.486C45.6662 38.5858 45.8372 38.5022 45.9482 38.3606L50.411 32.7129C50.8778 32.1045 49.9788 31.3636 49.4842 31.9744L45.1994 37.3968H10.7962Z" fill="#494949"/>
<path d="M43.7109 36.061C43.8842 36.061 44.0576 35.9844 44.1754 35.8357L46.6437 32.7123C47.1221 32.1039 46.2023 31.3654 45.717 31.9738L43.2487 35.0973C42.9367 35.4665 43.2348 36.0772 43.7109 36.061Z" fill="#494949"/>
<path d="M11.8269 35.8357C12.3122 36.4418 13.232 35.7056 12.7536 35.0972L10.2854 31.9738C9.80233 31.3677 8.88019 32.1015 9.3586 32.7123L11.8269 35.8357Z" fill="#494949"/>
<path d="M40.3643 40.7034H15.6353C14.8657 40.7151 14.8495 41.8785 15.6353 41.8924H40.3643C41.1339 41.8808 41.1501 40.7174 40.3643 40.7034Z" fill="#494949"/>
</svg>
