<svg width="38" height="53" viewBox="0 0 38 53" fill="none" xmlns="http://www.w3.org/2000/svg">
<path fill-rule="evenodd" clip-rule="evenodd" d="M4.09232 0.736115C2.07587 0.736115 0.438477 2.38547 0.438477 4.41667V48.5833C0.438477 50.6145 2.07587 52.2639 4.09232 52.2639H33.3231C35.3395 52.2639 36.9769 50.6145 36.9769 48.5833V4.41667C36.9769 2.38547 35.3395 0.736115 33.3231 0.736115H4.09232ZM4.09232 3.1906H7.74617V9.32565C7.74617 10.0019 8.29196 10.5517 8.96334 10.5517H28.4497C29.1211 10.5517 29.6669 10.0019 29.6669 9.32565V3.1906H33.3208C33.9921 3.1906 34.5379 3.74038 34.5379 4.41667V42.4483H2.87048V4.41667C2.87048 3.74039 3.41627 3.1906 4.08765 3.1906H4.09232ZM10.1828 3.1906H12.6195V8.09723H10.1828V3.1906ZM15.0539 3.1906H17.4905V8.09723H15.0539V3.1906ZM19.9249 3.1906H22.3616V8.09723H19.9249V3.1906ZM24.7959 3.1906H27.2326V8.09723H24.7959V3.1906ZM5.30949 4.41667C4.6404 4.41667 4.09232 4.97106 4.09232 5.64274C4.09232 6.31672 4.64269 6.8688 5.30949 6.8688C5.97858 6.8688 6.52666 6.31442 6.52666 5.64274C6.52666 4.96875 5.9763 4.41667 5.30949 4.41667ZM32.1036 4.41667C31.4345 4.41667 30.8864 4.97106 30.8864 5.64274C30.8864 6.31672 31.4368 6.8688 32.1036 6.8688C32.7727 6.8688 33.3208 6.31442 33.3208 5.64274C33.3208 4.96875 32.7704 4.41667 32.1036 4.41667ZM8.96334 19.1389C6.94688 19.1389 5.30949 20.7883 5.30949 22.8194V30.1806C5.30949 32.2118 6.94688 33.8611 8.96334 33.8611H28.4497C30.4662 33.8611 32.1036 32.2118 32.1036 30.1806V22.8194C32.1036 20.7883 30.4662 19.1389 28.4497 19.1389H8.96334ZM8.96334 21.5934H28.4497C29.1234 21.5934 29.6669 22.1432 29.6669 22.8194V30.1806C29.6669 30.8568 29.1234 31.4066 28.4497 31.4066H8.96334C8.28969 31.4066 7.74617 30.8568 7.74617 30.1806V22.8194C7.74617 22.1432 8.28968 21.5934 8.96334 21.5934ZM2.87281 44.9028H34.5403V48.5833C34.5403 49.2596 33.9945 49.8094 33.3231 49.8094H4.09232C3.42095 49.8094 2.87515 49.2596 2.87515 48.5833V44.9028H2.87281ZM5.30949 46.1288C4.6404 46.1288 4.09232 46.6832 4.09232 47.3549C4.09232 48.0289 4.64269 48.581 5.30949 48.581C5.97858 48.581 6.52666 48.0266 6.52666 47.3549C6.52666 46.6809 5.9763 46.1288 5.30949 46.1288ZM32.1036 46.1288C31.4345 46.1288 30.8864 46.6832 30.8864 47.3549C30.8864 48.0289 31.4368 48.581 32.1036 48.581C32.7727 48.581 33.3208 48.0266 33.3208 47.3549C33.3208 46.6809 32.7704 46.1288 32.1036 46.1288Z" fill="#494949"/>
</svg>
